<?xml version="1.0" encoding="UTF-8" standalone="no"?>
<!DOCTYPE svg PUBLIC "-//W3C//DTD SVG 1.1//EN" "http://www.w3.org/Graphics/SVG/1.1/DTD/svg11.dtd">
<!-- Created with Inkscape (http://www.inkscape.org/) -->
<svg xmlns:dc="http://purl.org/dc/elements/1.1/" xmlns:cc="http://creativecommons.org/ns#" xmlns:rdf="http://www.w3.org/1999/02/22-rdf-syntax-ns#" xmlns:svg="http://www.w3.org/2000/svg" xmlns="http://www.w3.org/2000/svg" version="1.1" width="400" height="55" id="svg4134" xml:space="preserve"><metadata id="metadata4140"><rdf:RDF><cc:Work rdf:about=""><dc:format>image/svg+xml</dc:format><dc:type rdf:resource="http://purl.org/dc/dcmitype/StillImage"/><dc:title/></cc:Work></rdf:RDF></metadata><defs id="defs4138"/><g transform="matrix(1.25,0,0,-1.25,0,54.999951)" id="g4142"><g transform="matrix(1.4734357,0,0,1.4734357,-192.00379,-1088.5723)" id="g8120"><path d="m 277.91059,758.66544 c 0.932,0 1.688,-0.755 1.688,-1.687 0,-0.932 -0.631,-1.625 -1.563,-1.625 l -6.937,0 0,3.312 6.812,0 z m 0,1.938 -8.75,0 0,-13.188 1.938,0 0,6 6.75,0 c 0.863,0 1.562,-0.699 1.562,-1.562 l 0,-4.438 1.938,0 0,4.375 c 0,1.014 -0.498,1.861 -1.188,2.5 0.741,0.653 1.313,1.686 1.313,2.75 0,1.968 -1.595,3.563 -3.563,3.563" id="path4324" style="fill:#9d173e;fill-opacity:1;fill-rule:evenodd;stroke:none"/><path d="m 166.28125,113.09375 0,14.0625 149.375,0 0,-6.40625 -128.125,0 0,-7.65625 -21.25,0 z" transform="matrix(0.8,0,0,-0.8,0,841.89)" id="path4408" style="fill:#cdcdcd;fill-opacity:1;fill-rule:nonzero;stroke:none"/><path d="m 246.90625,92.9375 0,5.625 162.03125,0 0,7.03125 22.03125,0 0,-12.65625 -184.0625,0 z" transform="matrix(0.8,0,0,-0.8,0,841.89)" id="path4456" style="fill:#cdcdcd;fill-opacity:1;fill-rule:nonzero;stroke:none"/><path d="m 255.53659,740.69344 1.514,0 0,-0.569 -2.136,0 0,4.988 0.622,0 0,-4.419" id="path4496" style="fill:black;fill-opacity:1;fill-rule:nonzero;stroke:none"/><path d="m 257.54759,740.12444 0.622,0 0,4.988 -0.622,0 0,-4.988 z" id="path4498" style="fill:black;fill-opacity:1;fill-rule:nonzero;stroke:none"/><path d="m 259.14859,745.35044 3.744,-3.923 0,3.685 0.622,0 0,-5.193 -3.745,3.923 0,-3.718 -0.621,0 0,5.226" id="path4502" style="fill:black;fill-opacity:1;fill-rule:nonzero;stroke:none"/><path d="m 264.50659,745.11245 2.679,0 0,-0.569 -2.057,0 0,-1.396 1.998,0 0,-0.569 -1.998,0 0,-1.885 2.057,0 0,-0.569 -2.679,0 0,4.988" id="path4506" style="fill:black;fill-opacity:1;fill-rule:nonzero;stroke:none"/><path d="m 269.91059,743.96145 -0.886,-2.018 1.773,0 -0.887,2.018 z m -1.144,-2.586 -0.57,-1.251 -0.668,0 2.382,5.199 2.382,-5.199 -0.669,0 -0.569,1.251 -2.288,0" id="path4510" style="fill:black;fill-opacity:1;fill-rule:nonzero;stroke:none"/><path d="m 273.43659,742.75043 0.198,0 c 0.635,0 1.324,0.119 1.324,0.913 0,0.781 -0.741,0.893 -1.356,0.893 l -0.166,0 0,-1.806 z m 2.481,-2.626 -0.754,0 -1.469,2.11 -0.258,0 0,-2.11 -0.621,0 0,4.988 0.754,0 c 0.443,0 0.919,-0.007 1.316,-0.232 0.416,-0.245 0.655,-0.714 0.655,-1.191 0,-0.714 -0.476,-1.309 -1.198,-1.395 l 1.575,-2.17" id="path4514" style="fill:black;fill-opacity:1;fill-rule:nonzero;stroke:none"/><path d="m 281.13259,740.12444 -0.622,0 0,4.419 -1.184,0 0,0.569 2.991,0 0,-0.569 -1.185,0 0,-4.419" id="path4518" style="fill:black;fill-opacity:1;fill-rule:nonzero;stroke:none"/><path d="m 283.09059,745.11245 2.679,0 0,-0.569 -2.057,0 0,-1.396 1.998,0 0,-0.569 -1.998,0 0,-1.885 2.057,0 0,-0.569 -2.679,0 0,4.988" id="path4522" style="fill:black;fill-opacity:1;fill-rule:nonzero;stroke:none"/><path d="m 290.45259,744.15944 c -0.357,0.317 -0.846,0.49 -1.316,0.49 -1.118,0 -1.971,-0.933 -1.971,-2.038 0,-1.091 0.846,-2.024 1.958,-2.024 0.489,0 0.959,0.185 1.329,0.516 l 0,-0.735 c -0.383,-0.224 -0.873,-0.35 -1.309,-0.35 -1.423,0 -2.6,1.131 -2.6,2.573 0,1.475 1.184,2.627 2.652,2.627 0.437,0 0.88,-0.106 1.257,-0.338 l 0,-0.721" id="path4526" style="fill:black;fill-opacity:1;fill-rule:nonzero;stroke:none"/><path d="m 294.4226,743.10145 0,2.011 0.622,0 0,-4.988 -0.622,0 0,2.395 -2.375,0 0,-2.395 -0.622,0 0,4.988 0.622,0 0,-2.011 2.375,0" id="path4530" style="fill:black;fill-opacity:1;fill-rule:nonzero;stroke:none"/><path d="m 296.1686,745.35044 3.744,-3.923 0,3.685 0.622,0 0,-5.193 -3.744,3.923 0,-3.718 -0.622,0 0,5.226" id="path4534" style="fill:black;fill-opacity:1;fill-rule:nonzero;stroke:none"/><path d="m 305.95859,742.61844 c 0,1.098 -0.821,2.018 -1.992,2.018 -1.169,0 -1.99,-0.92 -1.99,-2.018 0,-1.138 0.912,-2.018 1.99,-2.018 1.079,0 1.992,0.88 1.992,2.018 z m 0.622,0 c 0,-1.482 -1.171,-2.6 -2.614,-2.6 -1.441,0 -2.612,1.118 -2.612,2.6 0,1.429 1.184,2.6 2.612,2.6 1.43,0 2.614,-1.171 2.614,-2.6" id="path4538" style="fill:black;fill-opacity:1;fill-rule:nonzero;stroke:none"/><path d="m 308.0886,740.69344 1.515,0 0,-0.569 -2.137,0 0,4.988 0.622,0 0,-4.419" id="path4542" style="fill:black;fill-opacity:1;fill-rule:nonzero;stroke:none"/><path d="m 314.55059,742.61844 c 0,1.098 -0.82,2.018 -1.99,2.018 -1.171,0 -1.992,-0.92 -1.992,-2.018 0,-1.138 0.913,-2.018 1.992,-2.018 1.078,0 1.99,0.88 1.99,2.018 z m 0.622,0 c 0,-1.482 -1.171,-2.6 -2.612,-2.6 -1.443,0 -2.614,1.118 -2.614,2.6 0,1.429 1.185,2.6 2.614,2.6 1.428,0 2.612,-1.171 2.612,-2.6" id="path4546" style="fill:black;fill-opacity:1;fill-rule:nonzero;stroke:none"/><path d="m 320.60359,742.63843 0,-0.198 c 0,-1.37 -0.966,-2.422 -2.361,-2.422 -1.396,0 -2.521,1.205 -2.521,2.587 0,1.435 1.151,2.613 2.587,2.613 0.774,0 1.541,-0.351 2.031,-0.966 l -0.437,-0.417 c -0.357,0.49 -0.959,0.814 -1.568,0.814 -1.118,0 -1.991,-0.906 -1.991,-2.024 0,-1.046 0.86,-2.038 1.938,-2.038 0.774,0 1.608,0.669 1.634,1.482 l -1.289,0 0,0.569 1.977,0" id="path4550" style="fill:black;fill-opacity:1;fill-rule:nonzero;stroke:none"/><path d="m 320.9876,745.11245 0.714,0 1.224,-2.13 1.224,2.13 0.714,0 -1.627,-2.818 0,-2.17 -0.622,0 0,2.17 -1.627,2.818" id="path4554" style="fill:black;fill-opacity:1;fill-rule:nonzero;stroke:none"/><path d="m 197.34859,760.60344 1.625,0 9.812,-10.187 0,10.187 1.938,0 0,-13.187 -1.563,0 -9.874,10.25 0,-10.25 -1.938,0 0,13.187" id="path4598" style="fill:#9d173e;fill-opacity:1;fill-rule:nonzero;stroke:none"/><path d="m 225.09859,760.60344 0,-1.937 -10.687,0 0,-3.313 8.625,0 0,-1.937 -8.625,0 0,-4.063 10.687,0 0,-1.937 -12.625,0 0,13.187 12.625,0" id="path4638" style="fill:#9d173e;fill-opacity:1;fill-rule:nonzero;stroke:none"/><path d="m 238.91059,760.60344 0,-1.937 -10.687,0 0,-3.313 8.625,0 0,-1.937 -8.625,0 0,-4.063 10.687,0 0,-1.937 -12.625,0 0,13.187 12.625,0" id="path4686" style="fill:#9d173e;fill-opacity:1;fill-rule:nonzero;stroke:none"/><path d="m 310.53559,760.60344 0,-1.937 -10.687,0 0,-3.313 8.625,0 0,-1.937 -8.625,0 0,-4.063 10.687,0 0,-1.937 -12.625,0 0,13.187 12.625,0" id="path4726" style="fill:#9d173e;fill-opacity:1;fill-rule:nonzero;stroke:none"/><path d="m 267.53559,760.60344 0,-1.937 -10.688,0 0,-3.313 8.626,0 0,-1.937 -8.626,0 0,-4.063 10.688,0 0,-1.937 -12.625,0 0,13.187 12.625,0" id="path4774" style="fill:#9d173e;fill-opacity:1;fill-rule:nonzero;stroke:none"/><path d="m 267.53559,760.60344 0,-1.937 -10.688,0 0,-3.313 8.626,0 0,-1.937 -8.626,0 0,-4.063 10.688,0 0,-1.937 -12.625,0 0,13.187 12.625,0 z" id="path4778" style="fill:#9d173e;fill-opacity:1;stroke:none"/><path d="m 184.34859,760.60344 0,-5.25 9.5,0 0,5.25 1.938,0 0,-13.187 -1.938,0 0,6 -9.5,0 0,-6 -1.937,0 0,13.187 1.937,0" id="path4814" style="fill:#9d173e;fill-opacity:1;fill-rule:nonzero;stroke:none"/><path d="m 249.78559,749.35344 -7.312,0 0,4.063 7.343,0 c 1.123,0 2.032,-0.91 2.032,-2.032 0,-1.121 -0.941,-2.031 -2.063,-2.031 z m -7.312,9.313 6.968,0 c 0.915,0 1.657,-0.742 1.657,-1.657 0,-0.914 -0.742,-1.656 -1.657,-1.656 l -6.968,0 0,3.313 z m 9.437,-4.125 c 0.596,0.641 0.938,1.524 0.938,2.468 0,1.985 -1.609,3.594 -3.594,3.594 l -8.719,0 0,-13.187 9,0 c 2.227,0 4,1.742 4,3.968 0,1.322 -0.643,2.421 -1.625,3.157" id="path4822" style="fill:#9d173e;fill-opacity:1;fill-rule:nonzero;stroke:none"/><path d="m 282.84859,757.16544 c 0,1.899 1.539,3.438 3.438,3.438 l 6.437,0 c 1.899,0 3.437,-1.539 3.437,-3.438 l 0,-0.437 -1.937,0 0,0.437 c 0,0.829 -0.672,1.5 -1.5,1.5 l -6.437,0 c -0.829,0 -1.5,-0.671 -1.5,-1.5 l 0,-6.375 c 0,-0.828 0.671,-1.5 1.5,-1.5 l 6.499,0 c 0.829,0 1.5,0.672 1.5,1.5 l 0,2.188 c 0,0.241 -0.195,0.437 -0.437,0.437 l -5.562,0 0,1.938 6.124,0 c 1.002,0 1.813,-0.812 1.813,-1.813 l 0,-2.75 c 0,-1.898 -1.539,-3.437 -3.438,-3.437 l -6.499,0 c -1.899,0 -3.438,1.539 -3.438,3.437 l 0,6.375" id="path4878" style="fill:#9d173e;fill-opacity:1;fill-rule:nonzero;stroke:none"/><path d="m 320.84859,758.66544 c 0.932,0 1.688,-0.755 1.688,-1.687 0,-0.932 -0.631,-1.625 -1.563,-1.625 l -6.937,0 0,3.312 6.812,0 z m 0,1.938 -8.75,0 0,-13.188 1.938,0 0,6 6.75,0 c 0.863,0 1.562,-0.699 1.562,-1.562 l 0,-4.438 1.938,0 0,4.375 c 0,1.014 -0.498,1.861 -1.188,2.5 0.741,0.653 1.313,1.686 1.313,2.75 0,1.968 -1.595,3.563 -3.563,3.563" id="path4918" style="fill:#9d173e;fill-opacity:1;fill-rule:evenodd;stroke:none"/><path d="m 155.47359,747.41544 c -1.622,0 -2.937,1.315 -2.937,2.938 l 0,0.875 1.937,0 0,-0.875 c 0,-0.553 0.448,-1 1,-1 l 7.438,0 c 0.552,0 1,0.447 1,1 l 0,2.062 c 0,0.553 -0.448,1 -1,1 l -7.438,0 c -1.622,0 -2.937,1.315 -2.937,2.938 l 0,1.312 c 0,1.623 1.315,2.938 2.937,2.938 l 7.438,0 c 1.622,0 2.937,-1.315 2.937,-2.938 l 0,-0.687 -1.937,0 0,0.687 c 0,0.553 -0.448,1 -1,1 l -7.438,0 c -0.552,0 -1,-0.447 -1,-1 l 0,-1.312 c 0,-0.553 0.448,-1 1,-1 l 7.438,0 c 1.622,0 2.937,-1.315 2.937,-2.938 l 0,-2.062 c 0,-1.623 -1.315,-2.938 -2.937,-2.938 l -7.438,0" id="path5002" style="fill:#9d173e;fill-opacity:1;fill-rule:nonzero;stroke:none"/><path d="m 171.16059,747.41544 c -2.002,0 -3.625,1.623 -3.625,3.625 l 0,5.938 c 0,2.002 1.623,3.625 3.625,3.625 l 6.063,0 c 2.001,0 3.625,-1.623 3.625,-3.625 l 0,-0.875 -1.938,0 0,0.875 c 0,0.932 -0.755,1.687 -1.687,1.687 l -6.063,0 c -0.932,0 -1.687,-0.755 -1.687,-1.687 l 0,-5.938 c 0,-0.932 0.755,-1.687 1.687,-1.687 l 6.063,0 c 0.932,0 1.687,0.693 1.687,1.625 l 0,1.125 1.938,0 0,-1.063 c 0,-2.002 -1.624,-3.625 -3.625,-3.625 l -6.063,0" id="path5050" style="fill:#9d173e;fill-opacity:1;fill-rule:nonzero;stroke:none"/></g></g></svg>